<svg width="86" height="57" viewBox="0 0 86 57" fill="none" xmlns="http://www.w3.org/2000/svg">
<rect x="5" y="-0.000244141" width="76" height="44" fill="#5E6C84"/>
<path d="M3.85547 52.4568C3.97266 52.587 4.05859 52.7302 4.11328 52.8865C4.17057 53.0401 4.19922 53.2198 4.19922 53.4255C4.19922 53.9151 4.01823 54.3188 3.65625 54.6365C3.29427 54.9542 2.84505 55.113 2.30859 55.113C2.0612 55.113 1.8138 55.0753 1.56641 54.9998C1.31901 54.9216 1.10547 54.8279 0.925781 54.7185L0.757812 55.0037H0.445312L0.390625 53.1052H0.707031C0.772135 53.3396 0.847656 53.5518 0.933594 53.7419C1.02214 53.9294 1.13802 54.1052 1.28125 54.2693C1.41667 54.4229 1.57422 54.5453 1.75391 54.6365C1.9362 54.7276 2.14714 54.7732 2.38672 54.7732C2.56641 54.7732 2.72266 54.7498 2.85547 54.7029C2.99089 54.656 3.10026 54.5896 3.18359 54.5037C3.26693 54.4177 3.32812 54.3175 3.36719 54.2029C3.40885 54.0857 3.42969 53.9516 3.42969 53.8005C3.42969 53.5792 3.36719 53.3735 3.24219 53.1833C3.11719 52.9906 2.93099 52.8448 2.68359 52.7458C2.51432 52.6781 2.32031 52.6039 2.10156 52.5232C1.88281 52.4399 1.69401 52.3617 1.53516 52.2888C1.22266 52.1482 0.979167 51.9646 0.804688 51.738C0.632812 51.5089 0.546875 51.2107 0.546875 50.8435C0.546875 50.6326 0.589844 50.436 0.675781 50.2537C0.761719 50.0714 0.884115 49.9086 1.04297 49.7654C1.19401 49.63 1.3724 49.5245 1.57812 49.449C1.78385 49.3708 1.9987 49.3318 2.22266 49.3318C2.47786 49.3318 2.70573 49.3708 2.90625 49.449C3.10938 49.5271 3.29427 49.6182 3.46094 49.7224L3.62109 49.4568H3.93359L3.96484 51.2966H3.64844C3.59115 51.0857 3.52604 50.8839 3.45312 50.6912C3.38281 50.4985 3.29036 50.324 3.17578 50.1677C3.0638 50.0167 2.92708 49.8969 2.76562 49.8083C2.60417 49.7172 2.40625 49.6716 2.17188 49.6716C1.92448 49.6716 1.71354 49.7511 1.53906 49.9099C1.36458 50.0688 1.27734 50.2628 1.27734 50.4919C1.27734 50.7315 1.33333 50.9307 1.44531 51.0896C1.55729 51.2458 1.72005 51.3748 1.93359 51.4763C2.1237 51.5675 2.3099 51.6469 2.49219 51.7146C2.67708 51.7797 2.85547 51.85 3.02734 51.9255C3.18359 51.9932 3.33333 52.0701 3.47656 52.156C3.6224 52.2419 3.7487 52.3422 3.85547 52.4568ZM11.5703 54.9998H9.12109V54.7224C9.20964 54.7198 9.32292 54.7107 9.46094 54.6951C9.60156 54.6794 9.69792 54.6573 9.75 54.6287C9.83073 54.5792 9.88932 54.5232 9.92578 54.4607C9.96484 54.3956 9.98438 54.3149 9.98438 54.2185V50.1873H9.92578L8.03516 54.9099H7.83984L6.03906 50.0896H5.98828V53.3982C5.98828 53.7185 6.00781 53.962 6.04688 54.1287C6.08854 54.2953 6.15104 54.4151 6.23438 54.488C6.29167 54.5427 6.41016 54.5948 6.58984 54.6443C6.76953 54.6938 6.88672 54.7198 6.94141 54.7224V54.9998H4.70312V54.7224C4.82031 54.712 4.94271 54.6925 5.07031 54.6638C5.20052 54.6352 5.30078 54.5922 5.37109 54.5349C5.46224 54.462 5.52474 54.35 5.55859 54.199C5.59245 54.0479 5.60938 53.7953 5.60938 53.4412V50.6052C5.60938 50.4412 5.58984 50.307 5.55078 50.2029C5.51172 50.0987 5.45573 50.0141 5.38281 49.949C5.30208 49.8787 5.20312 49.8266 5.08594 49.7927C4.96875 49.7589 4.85286 49.7393 4.73828 49.7341V49.4568H6.62891L8.21484 53.613L9.57031 50.1365C9.61979 50.0089 9.66146 49.8761 9.69531 49.738C9.73177 49.5974 9.7513 49.5037 9.75391 49.4568H11.5625V49.7341C11.4896 49.7367 11.3958 49.7485 11.2812 49.7693C11.1693 49.7901 11.0872 49.8097 11.0352 49.8279C10.9466 49.8591 10.8867 49.9112 10.8555 49.9841C10.8242 50.057 10.8086 50.1365 10.8086 50.2224V54.2185C10.8086 54.3097 10.8242 54.3865 10.8555 54.449C10.8867 54.5115 10.9466 54.5662 11.0352 54.613C11.082 54.6391 11.1654 54.6638 11.2852 54.6873C11.4049 54.7081 11.5 54.7198 11.5703 54.7224V54.9998ZM17.4883 54.9998H15.1797V54.7224C15.3828 54.7094 15.5508 54.6833 15.6836 54.6443C15.819 54.6052 15.8867 54.557 15.8867 54.4998C15.8867 54.4763 15.8841 54.4477 15.8789 54.4138C15.8737 54.38 15.8659 54.35 15.8555 54.324L15.3945 53.0818H13.4531C13.3802 53.2641 13.3203 53.4229 13.2734 53.5583C13.2292 53.6938 13.1888 53.8188 13.1523 53.9333C13.1185 54.0453 13.0951 54.1365 13.082 54.2068C13.069 54.2771 13.0625 54.3344 13.0625 54.3787C13.0625 54.4828 13.1445 54.5636 13.3086 54.6208C13.4727 54.6781 13.6576 54.712 13.8633 54.7224V54.9998H11.7773V54.7224C11.8451 54.7172 11.9297 54.7029 12.0312 54.6794C12.1328 54.6534 12.2161 54.6195 12.2812 54.5779C12.3854 54.5076 12.4661 54.4347 12.5234 54.3591C12.5807 54.281 12.6367 54.1742 12.6914 54.0388C12.9701 53.3435 13.2773 52.5623 13.6133 51.6951C13.9492 50.8279 14.2487 50.0557 14.5117 49.3787H14.8242L16.6719 54.1599C16.7109 54.2615 16.7552 54.3435 16.8047 54.406C16.8542 54.4685 16.9232 54.5297 17.0117 54.5896C17.0716 54.6261 17.1497 54.6573 17.2461 54.6833C17.3424 54.7068 17.4232 54.7198 17.4883 54.7224V54.9998ZM15.2539 52.7341L14.4141 50.5857L13.5898 52.7341H15.2539ZM21.1367 52.4568C21.2539 52.587 21.3398 52.7302 21.3945 52.8865C21.4518 53.0401 21.4805 53.2198 21.4805 53.4255C21.4805 53.9151 21.2995 54.3188 20.9375 54.6365C20.5755 54.9542 20.1263 55.113 19.5898 55.113C19.3424 55.113 19.0951 55.0753 18.8477 54.9998C18.6003 54.9216 18.3867 54.8279 18.207 54.7185L18.0391 55.0037H17.7266L17.6719 53.1052H17.9883C18.0534 53.3396 18.1289 53.5518 18.2148 53.7419C18.3034 53.9294 18.4193 54.1052 18.5625 54.2693C18.6979 54.4229 18.8555 54.5453 19.0352 54.6365C19.2174 54.7276 19.4284 54.7732 19.668 54.7732C19.8477 54.7732 20.0039 54.7498 20.1367 54.7029C20.2721 54.656 20.3815 54.5896 20.4648 54.5037C20.5482 54.4177 20.6094 54.3175 20.6484 54.2029C20.6901 54.0857 20.7109 53.9516 20.7109 53.8005C20.7109 53.5792 20.6484 53.3735 20.5234 53.1833C20.3984 52.9906 20.2122 52.8448 19.9648 52.7458C19.7956 52.6781 19.6016 52.6039 19.3828 52.5232C19.1641 52.4399 18.9753 52.3617 18.8164 52.2888C18.5039 52.1482 18.2604 51.9646 18.0859 51.738C17.9141 51.5089 17.8281 51.2107 17.8281 50.8435C17.8281 50.6326 17.8711 50.436 17.957 50.2537C18.043 50.0714 18.1654 49.9086 18.3242 49.7654C18.4753 49.63 18.6536 49.5245 18.8594 49.449C19.0651 49.3708 19.2799 49.3318 19.5039 49.3318C19.7591 49.3318 19.987 49.3708 20.1875 49.449C20.3906 49.5271 20.5755 49.6182 20.7422 49.7224L20.9023 49.4568H21.2148L21.2461 51.2966H20.9297C20.8724 51.0857 20.8073 50.8839 20.7344 50.6912C20.6641 50.4985 20.5716 50.324 20.457 50.1677C20.3451 50.0167 20.2083 49.8969 20.0469 49.8083C19.8854 49.7172 19.6875 49.6716 19.4531 49.6716C19.2057 49.6716 18.9948 49.7511 18.8203 49.9099C18.6458 50.0688 18.5586 50.2628 18.5586 50.4919C18.5586 50.7315 18.6146 50.9307 18.7266 51.0896C18.8385 51.2458 19.0013 51.3748 19.2148 51.4763C19.4049 51.5675 19.5911 51.6469 19.7734 51.7146C19.9583 51.7797 20.1367 51.85 20.3086 51.9255C20.4648 51.9932 20.6146 52.0701 20.7578 52.156C20.9036 52.2419 21.0299 52.3422 21.1367 52.4568ZM27.918 54.9998H25.6172V54.7224C25.6797 54.7172 25.7695 54.7094 25.8867 54.699C26.0065 54.6886 26.0885 54.6729 26.1328 54.6521C26.2109 54.6208 26.2682 54.574 26.3047 54.5115C26.3411 54.4464 26.3594 54.363 26.3594 54.2615V52.2888H23.7539V54.2185C23.7539 54.3097 23.7682 54.3865 23.7969 54.449C23.8281 54.5115 23.888 54.5662 23.9766 54.613C24.0208 54.6365 24.099 54.6599 24.2109 54.6833C24.3255 54.7068 24.4154 54.7198 24.4805 54.7224V54.9998H22.1797V54.7224C22.2422 54.7172 22.332 54.7094 22.4492 54.699C22.569 54.6886 22.651 54.6729 22.6953 54.6521C22.7734 54.6208 22.8307 54.574 22.8672 54.5115C22.9036 54.4464 22.9219 54.363 22.9219 54.2615V50.2615C22.9219 50.1781 22.9049 50.1026 22.8711 50.0349C22.8372 49.9646 22.7786 49.9099 22.6953 49.8708C22.625 49.837 22.5391 49.807 22.4375 49.781C22.3385 49.755 22.2526 49.7393 22.1797 49.7341V49.4568H24.4805V49.7341C24.4076 49.7367 24.3177 49.7485 24.2109 49.7693C24.1068 49.7901 24.0286 49.8097 23.9766 49.8279C23.888 49.8591 23.8281 49.9112 23.7969 49.9841C23.7682 50.057 23.7539 50.1365 23.7539 50.2224V51.9412H26.3594V50.2615C26.3594 50.1781 26.3424 50.1026 26.3086 50.0349C26.2747 49.9646 26.2161 49.9099 26.1328 49.8708C26.0625 49.837 25.9766 49.807 25.875 49.781C25.776 49.755 25.6901 49.7393 25.6172 49.7341V49.4568H27.918V49.7341C27.8451 49.7367 27.7552 49.7485 27.6484 49.7693C27.5443 49.7901 27.4661 49.8097 27.4141 49.8279C27.3255 49.8591 27.2656 49.9112 27.2344 49.9841C27.2057 50.057 27.1914 50.1365 27.1914 50.2224V54.2185C27.1914 54.3097 27.2057 54.3865 27.2344 54.449C27.2656 54.5115 27.3255 54.5662 27.4141 54.613C27.4583 54.6365 27.5365 54.6599 27.6484 54.6833C27.763 54.7068 27.8529 54.7198 27.918 54.7224V54.9998ZM34.875 50.824C34.875 51.113 34.8177 51.3695 34.7031 51.5935C34.5911 51.8149 34.4349 51.9985 34.2344 52.1443C34.0365 52.2901 33.819 52.3969 33.582 52.4646C33.3451 52.5323 33.0938 52.5662 32.8281 52.5662H32.207V54.2458C32.207 54.337 32.2214 54.4177 32.25 54.488C32.2812 54.5557 32.3438 54.6078 32.4375 54.6443C32.4844 54.6625 32.5664 54.6794 32.6836 54.6951C32.8034 54.7107 32.9128 54.7198 33.0117 54.7224V54.9998H30.6328V54.7224C30.6953 54.7172 30.7852 54.7081 30.9023 54.6951C31.0221 54.682 31.1055 54.6651 31.1523 54.6443C31.2305 54.6104 31.2865 54.561 31.3203 54.4958C31.3568 54.4307 31.375 54.3474 31.375 54.2458V50.2458C31.375 50.1547 31.362 50.0727 31.3359 49.9998C31.3099 49.9268 31.2487 49.8722 31.1523 49.8357C31.0534 49.8018 30.9544 49.7784 30.8555 49.7654C30.7591 49.7498 30.6758 49.7393 30.6055 49.7341V49.4568H33.1367C33.6523 49.4568 34.0703 49.5818 34.3906 49.8318C34.7135 50.0792 34.875 50.4099 34.875 50.824ZM33.6875 51.7693C33.776 51.6443 33.8346 51.5154 33.8633 51.3826C33.8919 51.2472 33.9062 51.1261 33.9062 51.0193C33.9062 50.8708 33.888 50.7198 33.8516 50.5662C33.8177 50.4125 33.7578 50.2784 33.6719 50.1638C33.5807 50.0414 33.4609 49.9464 33.3125 49.8787C33.1641 49.811 32.9792 49.7771 32.7578 49.7771H32.207V52.2263H32.6055C32.8867 52.2263 33.1146 52.1833 33.2891 52.0974C33.4661 52.0089 33.599 51.8995 33.6875 51.7693ZM40.9141 54.9998H39.4219C39.0911 54.4815 38.7917 54.0336 38.5234 53.656C38.2578 53.2784 37.9688 52.8891 37.6562 52.488H37.0898V54.2458C37.0898 54.337 37.1042 54.4177 37.1328 54.488C37.1615 54.5557 37.2227 54.6078 37.3164 54.6443C37.3633 54.6625 37.4453 54.6794 37.5625 54.6951C37.6797 54.7107 37.7786 54.7198 37.8594 54.7224V54.9998H35.5156V54.7224C35.5781 54.7172 35.668 54.7081 35.7852 54.6951C35.9049 54.682 35.9883 54.6651 36.0352 54.6443C36.1133 54.6104 36.1693 54.561 36.2031 54.4958C36.2396 54.4307 36.2578 54.3474 36.2578 54.2458V50.238C36.2578 50.1469 36.2448 50.0662 36.2188 49.9958C36.1927 49.9255 36.1315 49.8722 36.0352 49.8357C35.9701 49.8123 35.8854 49.7914 35.7812 49.7732C35.6771 49.7524 35.5885 49.7393 35.5156 49.7341V49.4568H38.0742C38.3086 49.4568 38.5286 49.4815 38.7344 49.531C38.9401 49.5779 39.1263 49.6547 39.293 49.7615C39.4544 49.8656 39.5833 50.0024 39.6797 50.1716C39.776 50.3383 39.8242 50.5401 39.8242 50.7771C39.8242 50.9906 39.7917 51.1794 39.7266 51.3435C39.6615 51.5076 39.5651 51.6495 39.4375 51.7693C39.3203 51.8813 39.1797 51.9789 39.0156 52.0623C38.8516 52.143 38.6706 52.212 38.4727 52.2693C38.7461 52.6313 38.9727 52.936 39.1523 53.1833C39.3346 53.4307 39.5573 53.7315 39.8203 54.0857C39.9349 54.2419 40.0378 54.3578 40.1289 54.4333C40.2227 54.5063 40.3151 54.5662 40.4062 54.613C40.474 54.6469 40.5586 54.6729 40.6602 54.6912C40.7617 54.7094 40.8464 54.7198 40.9141 54.7224V54.9998ZM38.8594 50.8669C38.8594 50.531 38.763 50.2654 38.5703 50.0701C38.3776 49.8722 38.1055 49.7732 37.7539 49.7732H37.0898V52.1521H37.6016C37.9609 52.1521 38.2604 52.0375 38.5 51.8083C38.7396 51.5766 38.8594 51.2628 38.8594 50.8669ZM45.6094 50.113C45.8542 50.3682 46.0456 50.6768 46.1836 51.0388C46.3216 51.3982 46.3906 51.7966 46.3906 52.2341C46.3906 52.6742 46.3203 53.074 46.1797 53.4333C46.0391 53.7927 45.8438 54.0987 45.5938 54.3513C45.3516 54.6013 45.0703 54.794 44.75 54.9294C44.4297 55.0649 44.0885 55.1326 43.7266 55.1326C43.3411 55.1326 42.9844 55.061 42.6562 54.9177C42.3307 54.7719 42.0508 54.5701 41.8164 54.3123C41.582 54.0597 41.3971 53.7537 41.2617 53.3943C41.1289 53.0323 41.0625 52.6456 41.0625 52.2341C41.0625 51.7836 41.1328 51.3826 41.2734 51.031C41.4141 50.6768 41.6081 50.3708 41.8555 50.113C42.1003 49.8578 42.3841 49.6625 42.707 49.5271C43.0326 49.3917 43.3724 49.324 43.7266 49.324C44.0938 49.324 44.4401 49.393 44.7656 49.531C45.0911 49.669 45.3724 49.863 45.6094 50.113ZM45.0273 54.0427C45.1732 53.8057 45.2786 53.5375 45.3438 53.238C45.4115 52.9386 45.4453 52.6039 45.4453 52.2341C45.4453 51.8539 45.4076 51.505 45.332 51.1873C45.2591 50.8695 45.151 50.5987 45.0078 50.3748C44.8646 50.1534 44.6849 49.9815 44.4688 49.8591C44.2526 49.7341 44.0052 49.6716 43.7266 49.6716C43.4141 49.6716 43.1484 49.7432 42.9297 49.8865C42.7109 50.0297 42.5326 50.2211 42.3945 50.4607C42.2643 50.6899 42.1667 50.9581 42.1016 51.2654C42.0391 51.5727 42.0078 51.8956 42.0078 52.2341C42.0078 52.6091 42.0417 52.9477 42.1094 53.2498C42.1771 53.5518 42.2839 53.8201 42.4297 54.0544C42.5703 54.2836 42.7474 54.4633 42.9609 54.5935C43.1745 54.7211 43.4297 54.7849 43.7266 54.7849C44.0052 54.7849 44.2565 54.7198 44.4805 54.5896C44.7044 54.4594 44.8867 54.2771 45.0273 54.0427ZM51.5625 50.113C51.8073 50.3682 51.9987 50.6768 52.1367 51.0388C52.2747 51.3982 52.3438 51.7966 52.3438 52.2341C52.3438 52.6742 52.2734 53.074 52.1328 53.4333C51.9922 53.7927 51.7969 54.0987 51.5469 54.3513C51.3047 54.6013 51.0234 54.794 50.7031 54.9294C50.3828 55.0649 50.0417 55.1326 49.6797 55.1326C49.2943 55.1326 48.9375 55.061 48.6094 54.9177C48.2839 54.7719 48.0039 54.5701 47.7695 54.3123C47.5352 54.0597 47.3503 53.7537 47.2148 53.3943C47.082 53.0323 47.0156 52.6456 47.0156 52.2341C47.0156 51.7836 47.0859 51.3826 47.2266 51.031C47.3672 50.6768 47.5612 50.3708 47.8086 50.113C48.0534 49.8578 48.3372 49.6625 48.6602 49.5271C48.9857 49.3917 49.3255 49.324 49.6797 49.324C50.0469 49.324 50.3932 49.393 50.7188 49.531C51.0443 49.669 51.3255 49.863 51.5625 50.113ZM50.9805 54.0427C51.1263 53.8057 51.2318 53.5375 51.2969 53.238C51.3646 52.9386 51.3984 52.6039 51.3984 52.2341C51.3984 51.8539 51.3607 51.505 51.2852 51.1873C51.2122 50.8695 51.1042 50.5987 50.9609 50.3748C50.8177 50.1534 50.638 49.9815 50.4219 49.8591C50.2057 49.7341 49.9583 49.6716 49.6797 49.6716C49.3672 49.6716 49.1016 49.7432 48.8828 49.8865C48.6641 50.0297 48.4857 50.2211 48.3477 50.4607C48.2174 50.6899 48.1198 50.9581 48.0547 51.2654C47.9922 51.5727 47.9609 51.8956 47.9609 52.2341C47.9609 52.6091 47.9948 52.9477 48.0625 53.2498C48.1302 53.5518 48.237 53.8201 48.3828 54.0544C48.5234 54.2836 48.7005 54.4633 48.9141 54.5935C49.1276 54.7211 49.3828 54.7849 49.6797 54.7849C49.9583 54.7849 50.2096 54.7198 50.4336 54.5896C50.6576 54.4594 50.8398 54.2771 50.9805 54.0427ZM57.3398 50.8435H57.0469C56.9922 50.6378 56.8776 50.4177 56.7031 50.1833C56.5312 49.949 56.3659 49.8201 56.207 49.7966C56.1263 49.7862 56.0299 49.7784 55.918 49.7732C55.8086 49.768 55.6836 49.7654 55.543 49.7654H54.6133V51.9919H55.25C55.4427 51.9919 55.5924 51.9724 55.6992 51.9333C55.806 51.8917 55.8971 51.8292 55.9727 51.7458C56.0247 51.6886 56.0716 51.6 56.1133 51.4802C56.1576 51.3578 56.1862 51.2276 56.1992 51.0896H56.4961V53.2654H56.1992C56.1914 53.1508 56.1641 53.0206 56.1172 52.8748C56.0729 52.7289 56.0247 52.6235 55.9727 52.5583C55.8945 52.462 55.7956 52.3969 55.6758 52.363C55.5586 52.3266 55.4167 52.3083 55.25 52.3083H54.6133V54.2185C54.6133 54.3044 54.6302 54.3813 54.6641 54.449C54.6979 54.5167 54.7578 54.5714 54.8438 54.613C54.8828 54.6313 54.9674 54.6534 55.0977 54.6794C55.2279 54.7055 55.3268 54.7198 55.3945 54.7224V54.9998H52.9922V54.7224C53.0703 54.7172 53.1745 54.7094 53.3047 54.699C53.4349 54.686 53.5195 54.6703 53.5586 54.6521C53.6367 54.6182 53.6927 54.5688 53.7266 54.5037C53.763 54.436 53.7812 54.3552 53.7812 54.2615V50.2615C53.7812 50.1755 53.7669 50.1 53.7383 50.0349C53.7096 49.9672 53.6497 49.9125 53.5586 49.8708C53.4883 49.837 53.3932 49.807 53.2734 49.781C53.1562 49.755 53.0625 49.7393 52.9922 49.7341V49.4568H57.3398V50.8435ZM63.6953 52.4177C63.8568 52.5271 63.9909 52.6703 64.0977 52.8474C64.2044 53.0245 64.2578 53.2393 64.2578 53.4919C64.2578 53.7498 64.2018 53.9737 64.0898 54.1638C63.9779 54.3539 63.832 54.5102 63.6523 54.6326C63.4779 54.7524 63.2799 54.8435 63.0586 54.906C62.8398 54.9685 62.6133 54.9998 62.3789 54.9998H59.7539V54.7224C59.8164 54.7172 59.9076 54.7068 60.0273 54.6912C60.1471 54.6729 60.2331 54.6521 60.2852 54.6287C60.3659 54.5922 60.4232 54.544 60.457 54.4841C60.4909 54.4216 60.5078 54.3422 60.5078 54.2458V50.2615C60.5078 50.1729 60.4922 50.0948 60.4609 50.0271C60.4323 49.9594 60.3737 49.9047 60.2852 49.863C60.207 49.824 60.1198 49.794 60.0234 49.7732C59.9271 49.7524 59.8464 49.7393 59.7812 49.7341V49.4568H62.3398C62.5378 49.4568 62.7266 49.4763 62.9062 49.5154C63.0885 49.5544 63.2617 49.6235 63.4258 49.7224C63.5794 49.8136 63.7057 49.9373 63.8047 50.0935C63.9036 50.2498 63.9531 50.4399 63.9531 50.6638C63.9531 50.8591 63.918 51.0336 63.8477 51.1873C63.7773 51.3383 63.6784 51.4685 63.5508 51.5779C63.431 51.682 63.293 51.7706 63.1367 51.8435C62.9831 51.9138 62.8164 51.9685 62.6367 52.0076V52.0427C62.7956 52.061 62.9727 52.1013 63.168 52.1638C63.3659 52.2237 63.5417 52.3083 63.6953 52.4177ZM62.7539 51.5818C62.8503 51.4698 62.9167 51.3474 62.9531 51.2146C62.9922 51.0818 63.0117 50.9242 63.0117 50.7419C63.0117 50.4373 62.9284 50.199 62.7617 50.0271C62.5951 49.8526 62.332 49.7654 61.9727 49.7654C61.8893 49.7654 61.7839 49.768 61.6562 49.7732C61.5312 49.7758 61.4258 49.7784 61.3398 49.781V51.9099H61.8359C62.0495 51.9099 62.2318 51.8826 62.3828 51.8279C62.5365 51.7732 62.6602 51.6912 62.7539 51.5818ZM63.293 53.3513C63.293 53.0232 63.1823 52.7537 62.9609 52.5427C62.7422 52.3318 62.4284 52.2263 62.0195 52.2263C61.8529 52.2263 61.7122 52.2289 61.5977 52.2341C61.4831 52.2367 61.3971 52.2393 61.3398 52.2419V54.1951C61.3398 54.3591 61.4062 54.4828 61.5391 54.5662C61.6719 54.6495 61.8568 54.6912 62.0938 54.6912C62.4818 54.6912 62.7786 54.5779 62.9844 54.3513C63.1901 54.1248 63.293 53.7914 63.293 53.3513ZM69.4766 50.113C69.7214 50.3682 69.9128 50.6768 70.0508 51.0388C70.1888 51.3982 70.2578 51.7966 70.2578 52.2341C70.2578 52.6742 70.1875 53.074 70.0469 53.4333C69.9062 53.7927 69.7109 54.0987 69.4609 54.3513C69.2188 54.6013 68.9375 54.794 68.6172 54.9294C68.2969 55.0649 67.9557 55.1326 67.5938 55.1326C67.2083 55.1326 66.8516 55.061 66.5234 54.9177C66.1979 54.7719 65.918 54.5701 65.6836 54.3123C65.4492 54.0597 65.2643 53.7537 65.1289 53.3943C64.9961 53.0323 64.9297 52.6456 64.9297 52.2341C64.9297 51.7836 65 51.3826 65.1406 51.031C65.2812 50.6768 65.4753 50.3708 65.7227 50.113C65.9674 49.8578 66.2513 49.6625 66.5742 49.5271C66.8997 49.3917 67.2396 49.324 67.5938 49.324C67.9609 49.324 68.3073 49.393 68.6328 49.531C68.9583 49.669 69.2396 49.863 69.4766 50.113ZM68.8945 54.0427C69.0404 53.8057 69.1458 53.5375 69.2109 53.238C69.2786 52.9386 69.3125 52.6039 69.3125 52.2341C69.3125 51.8539 69.2747 51.505 69.1992 51.1873C69.1263 50.8695 69.0182 50.5987 68.875 50.3748C68.7318 50.1534 68.5521 49.9815 68.3359 49.8591C68.1198 49.7341 67.8724 49.6716 67.5938 49.6716C67.2812 49.6716 67.0156 49.7432 66.7969 49.8865C66.5781 50.0297 66.3997 50.2211 66.2617 50.4607C66.1315 50.6899 66.0339 50.9581 65.9688 51.2654C65.9062 51.5727 65.875 51.8956 65.875 52.2341C65.875 52.6091 65.9089 52.9477 65.9766 53.2498C66.0443 53.5518 66.151 53.8201 66.2969 54.0544C66.4375 54.2836 66.6146 54.4633 66.8281 54.5935C67.0417 54.7211 67.2969 54.7849 67.5938 54.7849C67.8724 54.7849 68.1237 54.7198 68.3477 54.5896C68.5716 54.4594 68.7539 54.2771 68.8945 54.0427ZM76.2617 54.9998H73.668V54.7224C73.8815 54.7172 74.0534 54.6977 74.1836 54.6638C74.3164 54.6274 74.3828 54.5727 74.3828 54.4998C74.3828 54.4607 74.3529 54.38 74.293 54.2576C74.2331 54.1352 74.1562 53.9985 74.0625 53.8474C73.9583 53.6807 73.8346 53.4854 73.6914 53.2615C73.5482 53.0349 73.4062 52.8188 73.2656 52.613C73.0365 52.9151 72.776 53.2797 72.4844 53.7068C72.1927 54.1313 72.0469 54.3813 72.0469 54.4568C72.0469 54.5427 72.0859 54.6065 72.1641 54.6482C72.2448 54.6873 72.4206 54.712 72.6914 54.7224V54.9998H70.6211V54.7224C70.6888 54.7172 70.7747 54.7081 70.8789 54.6951C70.9857 54.6794 71.0729 54.6547 71.1406 54.6208C71.276 54.5479 71.3841 54.4698 71.4648 54.3865C71.5482 54.3005 71.6315 54.2003 71.7148 54.0857C71.8815 53.8565 72.0951 53.5714 72.3555 53.2302C72.6159 52.8865 72.8464 52.574 73.0469 52.2927C72.8958 52.0714 72.7031 51.7914 72.4688 51.4529C72.2344 51.1117 71.9844 50.7472 71.7188 50.3591C71.6068 50.1951 71.5182 50.0792 71.4531 50.0115C71.3906 49.9438 71.306 49.8852 71.1992 49.8357C71.1367 49.807 71.0495 49.7849 70.9375 49.7693C70.8281 49.7511 70.7409 49.7393 70.6758 49.7341V49.4568H73.2422V49.7341C73.0911 49.7393 72.9336 49.7589 72.7695 49.7927C72.6081 49.824 72.5273 49.8735 72.5273 49.9412C72.5273 49.9906 72.5599 50.0779 72.625 50.2029C72.6901 50.3253 72.7669 50.4568 72.8555 50.5974C72.9466 50.7432 73.0482 50.9047 73.1602 51.0818C73.2721 51.2589 73.4089 51.4633 73.5703 51.6951C73.8646 51.2966 74.1185 50.9373 74.332 50.6169C74.5456 50.2966 74.6523 50.0883 74.6523 49.9919C74.6523 49.9086 74.6029 49.8474 74.5039 49.8083C74.4076 49.7693 74.2435 49.7445 74.0117 49.7341V49.4568H76.0781V49.7341C76.013 49.7367 75.9271 49.7472 75.8203 49.7654C75.7161 49.781 75.6289 49.8044 75.5586 49.8357C75.4232 49.9008 75.3216 49.9711 75.2539 50.0466C75.1888 50.1222 75.1003 50.2315 74.9883 50.3748C74.7799 50.643 74.5872 50.8956 74.4102 51.1326C74.2357 51.3669 74.0247 51.6534 73.7773 51.9919C73.9857 52.2888 74.2174 52.6261 74.4727 53.0037C74.7305 53.3813 74.9766 53.7419 75.2109 54.0857C75.2917 54.2029 75.3841 54.3149 75.4883 54.4216C75.5924 54.5258 75.6771 54.5974 75.7422 54.6365C75.8047 54.6729 75.888 54.6964 75.9922 54.7068C76.099 54.7146 76.1888 54.7198 76.2617 54.7224V54.9998ZM81.3008 53.3669L81.1953 54.9998H76.5938V54.7224C76.6719 54.7172 76.776 54.7068 76.9062 54.6912C77.0365 54.6729 77.1211 54.6547 77.1602 54.6365C77.2435 54.5974 77.3008 54.5466 77.332 54.4841C77.3659 54.4216 77.3828 54.3422 77.3828 54.2458V50.2615C77.3828 50.1755 77.3685 50.1 77.3398 50.0349C77.3112 49.9672 77.2513 49.9125 77.1602 49.8708C77.0898 49.837 76.9948 49.807 76.875 49.781C76.7578 49.755 76.6641 49.7393 76.5938 49.7341V49.4568H80.8828V50.7927H80.5898C80.5378 50.5948 80.4245 50.3852 80.25 50.1638C80.0781 49.9399 79.9141 49.8175 79.7578 49.7966C79.6771 49.7862 79.5807 49.7784 79.4688 49.7732C79.3568 49.768 79.2292 49.7654 79.0859 49.7654H78.2148V51.9685H78.8398C79.0404 51.9685 79.1862 51.9503 79.2773 51.9138C79.3711 51.8748 79.4531 51.811 79.5234 51.7224C79.5807 51.6469 79.6289 51.5466 79.668 51.4216C79.7096 51.294 79.737 51.1742 79.75 51.0623H80.043V53.2302H79.75C79.7396 53.1052 79.7109 52.9737 79.6641 52.8357C79.6198 52.6951 79.5729 52.5935 79.5234 52.531C79.4427 52.4294 79.3503 52.363 79.2461 52.3318C79.1445 52.3005 79.0091 52.2849 78.8398 52.2849H78.2148V53.949C78.2148 54.1156 78.2266 54.2472 78.25 54.3435C78.2734 54.4399 78.319 54.5128 78.3867 54.5623C78.4544 54.6117 78.5469 54.6443 78.6641 54.6599C78.7812 54.6729 78.9479 54.6794 79.1641 54.6794C79.25 54.6794 79.3633 54.6794 79.5039 54.6794C79.6445 54.6794 79.763 54.6742 79.8594 54.6638C79.9583 54.6534 80.0599 54.6352 80.1641 54.6091C80.2708 54.5805 80.3464 54.5427 80.3906 54.4958C80.5104 54.3708 80.6354 54.182 80.7656 53.9294C80.8984 53.6742 80.9831 53.4867 81.0195 53.3669H81.3008ZM85.3164 52.4568C85.4336 52.587 85.5195 52.7302 85.5742 52.8865C85.6315 53.0401 85.6602 53.2198 85.6602 53.4255C85.6602 53.9151 85.4792 54.3188 85.1172 54.6365C84.7552 54.9542 84.306 55.113 83.7695 55.113C83.5221 55.113 83.2747 55.0753 83.0273 54.9998C82.7799 54.9216 82.5664 54.8279 82.3867 54.7185L82.2188 55.0037H81.9062L81.8516 53.1052H82.168C82.2331 53.3396 82.3086 53.5518 82.3945 53.7419C82.4831 53.9294 82.599 54.1052 82.7422 54.2693C82.8776 54.4229 83.0352 54.5453 83.2148 54.6365C83.3971 54.7276 83.6081 54.7732 83.8477 54.7732C84.0273 54.7732 84.1836 54.7498 84.3164 54.7029C84.4518 54.656 84.5612 54.5896 84.6445 54.5037C84.7279 54.4177 84.7891 54.3175 84.8281 54.2029C84.8698 54.0857 84.8906 53.9516 84.8906 53.8005C84.8906 53.5792 84.8281 53.3735 84.7031 53.1833C84.5781 52.9906 84.3919 52.8448 84.1445 52.7458C83.9753 52.6781 83.7812 52.6039 83.5625 52.5232C83.3438 52.4399 83.1549 52.3617 82.9961 52.2888C82.6836 52.1482 82.4401 51.9646 82.2656 51.738C82.0938 51.5089 82.0078 51.2107 82.0078 50.8435C82.0078 50.6326 82.0508 50.436 82.1367 50.2537C82.2227 50.0714 82.3451 49.9086 82.5039 49.7654C82.6549 49.63 82.8333 49.5245 83.0391 49.449C83.2448 49.3708 83.4596 49.3318 83.6836 49.3318C83.9388 49.3318 84.1667 49.3708 84.3672 49.449C84.5703 49.5271 84.7552 49.6182 84.9219 49.7224L85.082 49.4568H85.3945L85.4258 51.2966H85.1094C85.0521 51.0857 84.987 50.8839 84.9141 50.6912C84.8438 50.4985 84.7513 50.324 84.6367 50.1677C84.5247 50.0167 84.388 49.8969 84.2266 49.8083C84.0651 49.7172 83.8672 49.6716 83.6328 49.6716C83.3854 49.6716 83.1745 49.7511 83 49.9099C82.8255 50.0688 82.7383 50.2628 82.7383 50.4919C82.7383 50.7315 82.7943 50.9307 82.9062 51.0896C83.0182 51.2458 83.181 51.3748 83.3945 51.4763C83.5846 51.5675 83.7708 51.6469 83.9531 51.7146C84.138 51.7797 84.3164 51.85 84.4883 51.9255C84.6445 51.9932 84.7943 52.0701 84.9375 52.156C85.0833 52.2419 85.2096 52.3422 85.3164 52.4568Z" fill="#5E6C84"/>
<path d="M33.4541 23.7351C33.835 24.1583 34.1143 24.6238 34.292 25.1316C34.4782 25.6309 34.5713 26.2149 34.5713 26.8835C34.5713 28.4747 33.9831 29.7865 32.8066 30.8191C31.6302 31.8516 30.1702 32.3679 28.4268 32.3679C27.6227 32.3679 26.8187 32.2452 26.0146 31.9998C25.2106 31.7458 24.5166 31.4412 23.9326 31.0857L23.3867 32.0125H22.3711L22.1934 25.8425H23.2217C23.4333 26.6042 23.6787 27.294 23.958 27.9119C24.2458 28.5212 24.6224 29.0925 25.0879 29.6257C25.528 30.1251 26.04 30.5229 26.624 30.8191C27.2165 31.1153 27.902 31.2634 28.6807 31.2634C29.2646 31.2634 29.7725 31.1873 30.2041 31.0349C30.6442 30.8826 30.9997 30.6667 31.2705 30.3875C31.5413 30.1082 31.7402 29.7823 31.8672 29.4099C32.0026 29.0291 32.0703 28.5932 32.0703 28.1023C32.0703 27.3829 31.8672 26.7143 31.4609 26.0964C31.0547 25.4701 30.4495 24.9962 29.6455 24.6746C29.0954 24.4545 28.4648 24.2133 27.7539 23.9509C27.043 23.6801 26.4294 23.4262 25.9131 23.1892C24.8975 22.7322 24.1061 22.1355 23.5391 21.3992C22.9805 20.6544 22.7012 19.6853 22.7012 18.4919C22.7012 17.8064 22.8408 17.1674 23.1201 16.575C23.3994 15.9825 23.7972 15.4535 24.3135 14.988C24.8044 14.5479 25.3841 14.2052 26.0527 13.9597C26.7214 13.7058 27.4196 13.5789 28.1475 13.5789C28.9769 13.5789 29.7174 13.7058 30.3691 13.9597C31.0293 14.2136 31.6302 14.5098 32.1719 14.8484L32.6924 13.9851H33.708L33.8096 19.9646H32.7812C32.5951 19.2791 32.3835 18.6231 32.1465 17.9968C31.918 17.3705 31.6175 16.8035 31.2451 16.2957C30.8812 15.8048 30.4368 15.4154 29.9121 15.1277C29.3874 14.8315 28.7441 14.6833 27.9824 14.6833C27.1784 14.6833 26.4928 14.9415 25.9258 15.4578C25.3587 15.974 25.0752 16.6046 25.0752 17.3494C25.0752 18.128 25.2572 18.7755 25.6211 19.2917C25.985 19.7996 26.514 20.2185 27.208 20.5486C27.8258 20.8448 28.431 21.1029 29.0234 21.323C29.6243 21.5346 30.2041 21.7631 30.7627 22.0085C31.2705 22.2286 31.7572 22.4783 32.2227 22.7576C32.6966 23.0369 33.1071 23.3627 33.4541 23.7351ZM63.1738 18.4285C63.1738 19.3679 62.9876 20.2016 62.6152 20.9294C62.2513 21.6488 61.7435 22.2455 61.0918 22.7195C60.4486 23.1934 59.7419 23.5404 58.9717 23.7605C58.2015 23.9806 57.3848 24.0906 56.5215 24.0906H54.5029V29.5496C54.5029 29.8458 54.5495 30.1082 54.6426 30.3367C54.7441 30.5567 54.9473 30.726 55.252 30.8445C55.4043 30.9037 55.6709 30.9587 56.0518 31.0095C56.4411 31.0603 56.7965 31.0899 57.1182 31.0984V31.9998H49.3867V31.0984C49.5898 31.0815 49.8818 31.0518 50.2627 31.0095C50.652 30.9672 50.9229 30.9122 51.0752 30.8445C51.3291 30.7345 51.5111 30.5736 51.6211 30.3621C51.7396 30.1505 51.7988 29.8796 51.7988 29.5496V16.5496C51.7988 16.2533 51.7565 15.9867 51.6719 15.7498C51.5872 15.5128 51.3883 15.335 51.0752 15.2166C50.7536 15.1065 50.432 15.0304 50.1104 14.988C49.7972 14.9373 49.5264 14.9034 49.2979 14.8865V13.9851H57.5244C59.2002 13.9851 60.5586 14.3914 61.5996 15.2039C62.6491 16.0079 63.1738 17.0828 63.1738 18.4285ZM59.3145 21.5007C59.6022 21.0945 59.7926 20.6755 59.8857 20.2439C59.9788 19.8038 60.0254 19.4102 60.0254 19.0632C60.0254 18.5808 59.9661 18.0899 59.8477 17.5906C59.7376 17.0912 59.543 16.6554 59.2637 16.283C58.9674 15.8852 58.5781 15.5763 58.0957 15.3562C57.6133 15.1361 57.0124 15.0261 56.293 15.0261H54.5029V22.9861H55.7979C56.7119 22.9861 57.4525 22.8464 58.0195 22.5671C58.5951 22.2794 59.0267 21.9239 59.3145 21.5007Z" fill="white"/>
<rect x="42" y="12.9998" width="1" height="19" fill="white"/>
</svg>
