<svg width="26" height="26" viewBox="0 0 26 26" fill="none" xmlns="http://www.w3.org/2000/svg">
<path d="M13 5.41675H17.3333C17.9316 5.41675 18.4167 5.90177 18.4167 6.50008V20.5834C18.4167 22.3783 16.9616 23.8334 15.1667 23.8334H5.41667C3.62174 23.8334 2.16667 22.3783 2.16667 20.5834V6.50008C2.16667 5.90177 2.65169 5.41675 3.25 5.41675H7.58333M13 5.41675V2.16675M13 5.41675H7.58333M7.58333 5.41675V3.25008M18.4167 8.66675H21.6667C22.8633 8.66675 23.8333 9.6368 23.8333 10.8334V13.7966C23.8333 15.3187 23.0347 16.7293 21.7295 17.5124L18.4167 19.5001" stroke="#EF018D" stroke-width="1.5" stroke-linecap="round"/>
</svg>
