<svg width="18" height="18" viewBox="0 0 18 18" fill="none" xmlns="http://www.w3.org/2000/svg">
<path d="M5.99994 13.5C5.99994 14.3284 5.32837 15 4.49994 15C3.67151 15 2.99994 14.3284 2.99994 13.5M5.99994 13.5C5.99994 12.6716 5.32837 12 4.49994 12C3.67151 12 2.99994 12.6716 2.99994 13.5M5.99994 13.5H10.4999M2.99994 13.5H2.24994C1.42151 13.5 0.749939 12.8284 0.749939 12V4.5C0.749939 3.67157 1.42151 3 2.24994 3H8.99994C9.82837 3 10.4999 3.67157 10.4999 4.5V5.25M14.9999 13.5C14.9999 14.3284 14.3284 15 13.4999 15C12.6715 15 11.9999 14.3284 11.9999 13.5M14.9999 13.5C14.9999 12.6716 14.3284 12 13.4999 12C12.6715 12 11.9999 12.6716 11.9999 13.5M14.9999 13.5H15.7499C16.5784 13.5 17.2499 12.8284 17.2499 12V9.52617C17.2499 9.18556 17.134 8.8551 16.9212 8.58913L14.7003 5.81296C14.4156 5.45713 13.9847 5.25 13.529 5.25H10.4999M11.9999 13.5H10.4999M10.4999 5.25V13.5" stroke="#5E6C84"/>
</svg>
