<svg width="26" height="26" viewBox="0 0 26 26" fill="none" xmlns="http://www.w3.org/2000/svg">
<g clip-path="url(#clip0_1_837)">
<path d="M16.25 9.75009L9.75005 16.2501M9.75005 10.8334L10.8334 9.75009M15.1667 16.2501L16.25 15.1668M8.64976 3.27041L7.82238 3.07242C6.5284 2.76275 5.26361 3.68167 5.15825 5.00802L5.09089 5.85608C5.02646 6.66714 4.51309 7.37375 3.76163 7.68565L2.97589 8.01179C1.74702 8.52185 1.26391 10.0087 1.95828 11.1437L2.40226 11.8694C2.82687 12.5634 2.82687 13.4368 2.40226 14.1308L1.95828 14.8565C1.26391 15.9915 1.74702 17.4783 2.97589 17.9884L3.76163 18.3145C4.51309 18.6264 5.02646 19.333 5.09089 20.1441L5.15825 20.9922C5.26361 22.3185 6.5284 23.2374 7.82238 22.9278L8.64976 22.7298C9.44103 22.5404 10.2717 22.8103 10.8005 23.4286L11.3535 24.0751C12.2184 25.0862 13.7817 25.0862 14.6466 24.0751L15.1995 23.4286C15.7284 22.8103 16.5591 22.5404 17.3503 22.7298L18.1777 22.9278C19.4717 23.2374 20.7365 22.3185 20.8418 20.9922L20.9092 20.1441C20.9736 19.333 21.487 18.6264 22.2385 18.3145L23.0242 17.9884C24.2531 17.4783 24.7362 15.9915 24.0418 14.8565L23.5978 14.1308C23.1732 13.4368 23.1732 12.5634 23.5978 11.8694L24.0418 11.1437C24.7362 10.0087 24.2531 8.52185 23.0242 8.01179L22.2385 7.68565C21.487 7.37375 20.9736 6.66715 20.9092 5.85608L20.8418 5.00802C20.7365 3.68167 19.4717 2.76275 18.1777 3.07242L17.3503 3.27041C16.5591 3.45977 15.7284 3.18988 15.1995 2.57158L14.6466 1.92508C13.7817 0.913972 12.2184 0.913971 11.3535 1.92508L10.8005 2.57158C10.2717 3.18987 9.44103 3.45977 8.64976 3.27041Z" stroke="#64C21A" stroke-width="1.5" stroke-linecap="round"/>
</g>
<defs>
<clipPath id="clip0_1_837">
<rect width="26" height="26" fill="white"/>
</clipPath>
</defs>
</svg>
