<svg width="18" height="18" viewBox="0 0 18 18" fill="none" xmlns="http://www.w3.org/2000/svg">
<g clip-path="url(#clip0_439_26)">
<g clip-path="url(#clip1_439_26)">
<path d="M4.08154 7.30948C3.89697 7.85305 3.80127 8.42396 3.80127 9.00171C3.80127 9.64441 3.91748 10.2598 4.12939 10.8273C5.1377 13.5177 8.13525 14.8818 10.8252 13.8733C11.1021 13.7707 11.3687 13.6408 11.625 13.4938C12.6572 12.8887 13.4468 11.9486 13.8672 10.8307H9.19483V7.36418H17.5996C17.8149 8.50943 17.8047 9.68544 17.562 10.8273C17.1416 12.7964 16.0547 14.5638 14.4824 15.8219C12.9307 17.0731 10.9961 17.75 9.00684 17.75C4.17041 17.7534 0.253418 13.8391 0.25 9.00855C0.25 7.60691 0.584961 6.22236 1.23096 4.97797C2.73486 2.07213 5.73242 0.25 9 0.25C11.1226 0.25 13.0708 1.00552 14.585 2.26358L11.7515 4.58483C9.31104 3.06696 6.10156 3.81222 4.58398 6.25313C4.37549 6.58473 4.20801 6.94027 4.08154 7.30948Z" fill="#E52836"/>
</g>
</g>
<defs>
<clipPath id="clip0_439_26">
<rect width="17.5" height="17.5" fill="white" transform="translate(0.25 0.25)"/>
</clipPath>
<clipPath id="clip1_439_26">
<rect width="17.5" height="17.5" fill="white" transform="translate(0.25 0.25)"/>
</clipPath>
</defs>
</svg>
