<svg width="20" height="20" viewBox="0 0 20 20" fill="none" xmlns="http://www.w3.org/2000/svg">
<path d="M2.00716 3.60495C2.76015 11.1998 8.80017 17.2399 16.3951 17.9928C17.2784 18.0804 18 17.3524 18 16.4648V13.6052C18 12.9134 17.5573 12.2992 16.901 12.0805L14.1207 11.1537C13.5432 10.9612 12.9065 11.1115 12.476 11.542L12.031 11.987C11.7629 12.2551 11.3426 12.3008 11.0296 12.0867C9.58737 11.1001 8.77838 10.2929 7.89668 8.96533C7.69031 8.65462 7.73964 8.24236 8.00339 7.97861L8.45804 7.52396C8.8885 7.0935 9.03881 6.45678 8.8463 5.87926L7.91954 3.09896C7.70077 2.44267 7.0866 2 6.39481 2H3.53522C2.64759 2 1.91958 2.72165 2.00716 3.60495Z" stroke="#5E6C84" stroke-linecap="round"/>
</svg>
