<svg width="18" height="18" viewBox="0 0 18 18" fill="none" xmlns="http://www.w3.org/2000/svg">
<path d="M10.5001 3.375C10.5001 4.41053 8.48535 5.25 6.00007 5.25C3.51478 5.25 1.50006 4.41053 1.50006 3.375M10.5001 3.375C10.5001 2.33947 8.48535 1.5 6.00007 1.5C3.51478 1.5 1.50006 2.33947 1.50006 3.375M10.5001 3.375V6.375M1.50006 3.375V6.375M10.5001 6.375C10.5001 7.41053 8.48535 8.25 6.00007 8.25C3.51478 8.25 1.50006 7.41053 1.50006 6.375M10.5001 6.375V9.85669M1.50006 6.375V9.375M1.50006 9.375C1.50006 10.4105 3.51478 11.25 6.00007 11.25C6.58902 11.25 7.15154 11.2029 7.66709 11.1171M1.50006 9.375V12.375C1.50006 13.4105 3.51478 14.25 6.00007 14.25C6.52602 14.25 7.0309 14.2124 7.50007 14.1433M16.5001 11.625C16.5001 12.6605 14.4853 13.5 12.0001 13.5C9.51478 13.5 7.50007 12.6605 7.50007 11.625M16.5001 11.625C16.5001 10.5895 14.4853 9.75 12.0001 9.75C11.4741 9.75 10.9692 9.7876 10.5001 9.85669M16.5001 11.625V14.625C16.5001 15.6605 14.4853 16.5 12.0001 16.5C9.51478 16.5 7.50007 15.6605 7.50007 14.625V14.1433M7.50007 11.625V14.1433M7.50007 11.625C7.50007 11.449 7.55827 11.2787 7.66709 11.1171M7.66709 11.1171C8.06303 10.5295 9.12908 10.0586 10.5001 9.85669" stroke="#5E6C84"/>
</svg>
