<svg width="26" height="26" viewBox="0 0 26 26" fill="none" xmlns="http://www.w3.org/2000/svg">
<g clip-path="url(#clip0_1_833)">
<path d="M3.25004 10.8335V18.8454C3.25004 19.8609 3.95536 20.7402 4.94669 20.9605L12.53 22.6457C12.8396 22.7145 13.1605 22.7145 13.4701 22.6457L21.0534 20.9605C22.0447 20.7402 22.75 19.8609 22.75 18.8454V10.8335M3.25004 10.8335H1.08337L2.82515 6.47901C3.09102 5.81435 3.66802 5.32391 4.36684 5.16861L12.53 3.35457C12.6848 3.32018 12.8424 3.30298 13 3.30298M3.25004 10.8335H8.66671L13 3.30298M22.75 10.8335H17.3334L13 3.30298M22.75 10.8335H24.9167L23.1749 6.47901C22.9091 5.81435 22.3321 5.32391 21.6332 5.16861L13.4701 3.35457C13.3153 3.32018 13.1577 3.30298 13 3.30298M13 22.6973V3.30298" stroke="#E7B128" stroke-width="1.5" stroke-linecap="round"/>
</g>
<defs>
<clipPath id="clip0_1_833">
<rect width="26" height="26" fill="white"/>
</clipPath>
</defs>
</svg>
