<svg width="26" height="26" viewBox="0 0 26 26" fill="none" xmlns="http://www.w3.org/2000/svg">
<path d="M7.58335 20.5834H4.33335C3.13674 20.5834 2.16669 19.6134 2.16669 18.4167V9.75008C2.16669 8.55346 3.13674 7.58341 4.33335 7.58341H7.58335M7.58335 20.5834V16.2501M7.58335 20.5834V21.6667C7.58335 22.8634 8.5534 23.8334 9.75002 23.8334H16.25C17.4466 23.8334 18.4167 22.8634 18.4167 21.6667V20.5834M7.58335 16.2501H6.50002M7.58335 16.2501H18.4167M18.4167 20.5834H21.6667C22.8633 20.5834 23.8334 19.6134 23.8334 18.4167V9.75008C23.8334 8.55346 22.8633 7.58341 21.6667 7.58341H18.4167M18.4167 20.5834V16.2501M18.4167 16.2501H19.5M7.58335 7.58341V4.33341C7.58335 3.1368 8.5534 2.16675 9.75002 2.16675H16.25C17.4466 2.16675 18.4167 3.1368 18.4167 4.33341V7.58341M7.58335 7.58341H18.4167M18.4167 11.9167H17.3334" stroke="#F46343" stroke-width="1.5" stroke-linecap="round"/>
</svg>
