<svg width="16" height="16" viewBox="0 0 16 16" fill="none" xmlns="http://www.w3.org/2000/svg">
<g clip-path="url(#clip0_1_453)">
<path d="M1.39896 2.66472C2.02364 8.96544 7.03446 13.9763 13.3352 14.6009C14.068 14.6736 14.6666 14.0696 14.6666 13.3333V10.9609C14.6666 10.387 14.2994 9.87751 13.7549 9.69602L11.4484 8.92717C10.9693 8.76747 10.4411 8.89216 10.084 9.24927L9.71475 9.61848C9.49231 9.84092 9.14367 9.8788 8.88402 9.70119C7.68751 8.88272 7.01638 8.21301 6.28491 7.1117C6.11371 6.85393 6.15464 6.51192 6.37344 6.29312L6.75062 5.91594C7.10773 5.55883 7.23243 5.03061 7.07272 4.55149L6.30388 2.24495C6.12239 1.70049 5.61287 1.33325 5.03896 1.33325H2.66664C1.93026 1.33325 1.32631 1.93193 1.39896 2.66472Z" stroke="#FE545B" stroke-linecap="round"/>
</g>
<defs>
<clipPath id="clip0_1_453">
<rect width="16" height="16" fill="white"/>
</clipPath>
</defs>
</svg>
