<svg width="16" height="16" viewBox="0 0 16 16" fill="none" xmlns="http://www.w3.org/2000/svg">
<path d="M13.3334 6.00008C13.3334 10.1551 9.65038 13.8497 8.40552 14.9798C8.17185 15.1919 7.82819 15.1919 7.59452 14.9798C6.34966 13.8497 2.66669 10.1551 2.66669 6.00008C2.66669 3.05456 5.0545 0.666748 8.00002 0.666748C10.9455 0.666748 13.3334 3.05456 13.3334 6.00008Z" stroke="#FE545B" stroke-linecap="round"/>
<path d="M10 6.00008C10 7.10465 9.10459 8.00008 8.00002 8.00008C6.89545 8.00008 6.00002 7.10465 6.00002 6.00008C6.00002 4.89551 6.89545 4.00008 8.00002 4.00008C9.10459 4.00008 10 4.89551 10 6.00008Z" stroke="#FE545B" stroke-linecap="round"/>
</svg>
