<svg width="26" height="26" viewBox="0 0 26 26" fill="none" xmlns="http://www.w3.org/2000/svg">
<path d="M5.61538 24V11.3913H1.92308L1 5.13043L8.38462 2C9.30769 4.08696 11.5231 5.13043 13 5.13043C14.4769 5.13043 16.6923 4.08696 17.6154 2L25 5.13043L23.1538 11.3913H20.3846V24H5.61538Z" stroke="#02B0EF" stroke-width="1.5" stroke-linecap="round" stroke-linejoin="round"/>
<path d="M13 9L13.6458 8.61859C13.5109 8.39016 13.2653 8.25 13 8.25C12.7347 8.25 12.4891 8.39016 12.3542 8.61859L13 9ZM15.25 13.898C15.25 15.2208 14.2192 16.25 13 16.25V17.75C15.0945 17.75 16.75 16.0015 16.75 13.898H15.25ZM12.3542 9.38141C12.9611 10.4089 13.8266 11.2041 14.3536 11.816C14.9078 12.4594 15.25 13.0385 15.25 13.898H16.75C16.75 12.5262 16.1547 11.6086 15.4901 10.8371C14.7984 10.034 14.1639 9.49586 13.6458 8.61859L12.3542 9.38141ZM9.25 13.898C9.25 16.0015 10.9055 17.75 13 17.75V16.25C11.7808 16.25 10.75 15.2208 10.75 13.898H9.25ZM12.3542 8.61859C11.8361 9.49586 11.2016 10.034 10.5099 10.8371C9.84532 11.6086 9.25 12.5262 9.25 13.898H10.75C10.75 13.0385 11.0922 12.4594 11.6464 11.816C12.1734 11.2041 13.0389 10.4089 13.6458 9.38141L12.3542 8.61859Z" fill="#02B0EF"/>
</svg>
